<svg width="146" height="35" viewBox="0 0 146 35" fill="none" xmlns="http://www.w3.org/2000/svg">
<g filter="url(#filter0_d)">
<path d="M26.4222 3.66667L25.1778 10.6667H18.1778L19.4222 3.66667H26.4222ZM12.0333 3.66667L10.7889 10.6667H3.78889L5.03333 3.66667H12.0333ZM24.8278 12.6111L22.3 27H15.3L16.8944 18.0556H9.50556L7.91111 27H0.911111L3.43889 12.6111H24.8278ZM44.2447 10.6667H30.2447L33.2392 3.66667H43.7392L44.2447 10.6667ZM45.4503 27H38.4503L38.2169 23.8889H31.6058L30.2836 27H23.2836L29.4281 12.6111H34.6392C35.7799 12.6111 36.3762 12.6111 36.4281 12.6111L34.1336 18.0556H37.8281L37.4003 12.6111H44.4003L45.4503 27ZM71.0551 8.17778C71.0551 8.48889 71.0292 8.8 70.9773 9.11111L70.7051 10.6667H49.3162L50.5607 3.66667H66.5051C67.8273 3.66667 68.9162 4.09444 69.7718 4.95C70.6273 5.80555 71.0551 6.88148 71.0551 8.17778ZM70.3551 12.6111C70.2255 13.4148 69.5644 14.3222 68.3718 15.3333C69.0718 16.2148 69.4218 16.9926 69.4218 17.6667C69.4218 17.7963 69.4218 17.9259 69.4218 18.0556L67.8273 27H60.8273L62.4218 18.0556H55.0329L53.4385 27H46.4385L48.9662 12.6111H70.3551ZM94.3998 8.17778C94.3998 8.48889 94.3739 8.8 94.3221 9.11111L94.0498 10.6667H72.661L73.9054 3.66667H89.8498C91.1721 3.66667 92.261 4.09444 93.1165 4.95C93.9721 5.80555 94.3998 6.88148 94.3998 8.17778ZM93.6998 12.6111L92.1443 21.5556C91.885 23.0593 91.1202 24.3426 89.8498 25.4056C88.6054 26.4685 87.2313 27 85.7276 27H69.7832L72.311 12.6111H79.311L78.0276 20H85.4165L86.6998 12.6111H93.6998ZM116.695 3.66667L115.45 10.6667H96.0057L97.2501 3.66667H116.695ZM115.1 12.6111L114.167 18.0556H101.722L101.372 20H113.817L112.572 27H93.1279L95.6557 12.6111H115.1ZM139.141 8.17778C139.141 8.48889 139.115 8.8 139.063 9.11111L138.791 10.6667H117.402L118.647 3.66667H134.591C135.913 3.66667 137.002 4.09444 137.858 4.95C138.713 5.80555 139.141 6.88148 139.141 8.17778ZM138.441 12.6111L135.913 27H128.913L131.441 12.6111H138.441ZM124.052 12.6111L121.524 27H114.524L117.052 12.6111H124.052Z" fill="#FFCC00"/>
</g>
<defs>
<filter id="filter0_d" x="0.911133" y="3.66669" width="146.23" height="31.3333" filterUnits="userSpaceOnUse" color-interpolation-filters="sRGB">
<feFlood flood-opacity="0" result="BackgroundImageFix"/>
<feColorMatrix in="SourceAlpha" type="matrix" values="0 0 0 0 0 0 0 0 0 0 0 0 0 0 0 0 0 0 127 0"/>
<feOffset dx="4" dy="4"/>
<feGaussianBlur stdDeviation="2"/>
<feColorMatrix type="matrix" values="0 0 0 0 0 0 0 0 0 0 0 0 0 0 0 0 0 0 0.25 0"/>
<feBlend mode="normal" in2="BackgroundImageFix" result="effect1_dropShadow"/>
<feBlend mode="normal" in="SourceGraphic" in2="effect1_dropShadow" result="shape"/>
</filter>
</defs>
</svg>
